<svg xmlns="http://www.w3.org/2000/svg" viewBox="0 0 100 100" fill="none" stroke="#2c2c2c" stroke-width="1.8" stroke-linecap="round" stroke-linejoin="round">
  <!-- Photobooth Strip 1 (Angled) -->
  <g transform="rotate(-8 38 52)">
    <rect x="25" y="16" width="26" height="68" rx="2" fill="#FAF8F5" stroke="#2c2c2c" stroke-width="1.8" />
    <!-- Photo 1 -->
    <rect x="28" y="20" width="20" height="15" rx="1" fill="#FAF8F5" stroke="#444" stroke-width="1.2" />
    <circle cx="34" cy="27" r="2.5" fill="#444" stroke="none" />
    <circle cx="42" cy="26" r="2.5" fill="#444" stroke="none" />
    <path d="M31 33 C31 30 37 30 37 33 M39 33 C39 29 45 29 45 33" stroke="#444" stroke-width="1" />
    <!-- Photo 2 -->
    <rect x="28" y="38" width="20" height="15" rx="1" fill="#FAF8F5" stroke="#444" stroke-width="1.2" />
    <path d="M38 43 C36 41 33 43 33 46 C33 49 38 51 38 51 C38 51 43 49 43 46 C43 43 40 41 38 43 Z" fill="#C5A880" stroke="none" />
    <!-- Photo 3 -->
    <rect x="28" y="56" width="20" height="15" rx="1" fill="#FAF8F5" stroke="#444" stroke-width="1.2" />
    <circle cx="38" cy="63" r="3" fill="#444" stroke="none" />
    <path d="M33 70 C33 67 43 67 43 70" stroke="#444" stroke-width="1" />
    <!-- Bottom strip footer dots -->
    <circle cx="38" cy="77" r="1.5" fill="#C5A880" stroke="none" />
  </g>
  <!-- Photobooth Strip 2 (Angled behind/beside) -->
  <g transform="rotate(10 60 52)">
    <rect x="50" y="16" width="26" height="68" rx="2" fill="#FAF8F5" stroke="#2c2c2c" stroke-width="1.8" />
    <rect x="53" y="20" width="20" height="15" rx="1" fill="#FAF8F5" stroke="#444" stroke-width="1.2" />
    <circle cx="59" cy="26" r="2.5" fill="#444" stroke="none" />
    <circle cx="67" cy="27" r="2.5" fill="#444" stroke="none" />
    <rect x="53" y="38" width="20" height="15" rx="1" fill="#FAF8F5" stroke="#444" stroke-width="1.2" />
    <path d="M63 43 C61 41 58 43 58 46 C58 49 63 51 63 51 C63 51 68 49 68 46 C68 43 65 41 63 43 Z" fill="#C5A880" stroke="none" />
    <rect x="53" y="56" width="20" height="15" rx="1" fill="#FAF8F5" stroke="#444" stroke-width="1.2" />
    <circle cx="63" cy="77" r="1.5" fill="#C5A880" stroke="none" />
  </g>
  <!-- Floating Hearts around photo strips -->
  <path d="M20 22 C18 20 15 22 15 25 C15 28 20 30 20 30 C20 30 25 28 25 25 C25 22 22 20 20 22 Z" fill="#FAF8F5" stroke="#2c2c2c" stroke-width="1.2" />
  <path d="M82 25 C80 23 77 25 77 28 C77 31 82 33 82 33 C82 33 87 31 87 28 C87 25 84 23 82 25 Z" fill="#FAF8F5" stroke="#2c2c2c" stroke-width="1.2" />
</svg>
